<?xml version="1.0" standalone="no"?>
<!DOCTYPE svg PUBLIC "-//W3C//DTD SVG 20010904//EN"
 "http://www.w3.org/TR/2001/REC-SVG-20010904/DTD/svg10.dtd">
<svg version="1.0" xmlns="http://www.w3.org/2000/svg"
 width="186.000000pt" height="186.000000pt" viewBox="0 0 186.000000 186.000000"
 preserveAspectRatio="xMidYMid meet">
<metadata>
Created by potrace 1.14, written by Peter Selinger 2001-2017
</metadata>
<g transform="translate(0.000000,186.000000) scale(0.100000,-0.100000)"
fill="#000000" stroke="none">
<path d="M372 1173 l-32 -26 -19 22 c-12 14 -30 21 -54 21 -55 0 -59 -25 -6
-35 33 -7 34 -13 6 -24 -27 -11 -47 -39 -47 -67 0 -14 7 -11 31 14 34 34 55
36 24 2 -17 -19 -29 -126 -14 -136 5 -3 32 48 34 66 1 3 10 25 22 49 l20 43
16 -63 c9 -35 19 -89 22 -119 6 -50 5 -53 -8 -37 -14 17 -15 15 -10 -21 3 -24
1 -42 -6 -46 -19 -12 -12 -23 27 -48 52 -33 205 -33 307 -1 83 26 142 61 64
38 -28 -8 -51 -10 -60 -4 -19 12 -66 11 -90 -2 -27 -14 -118 7 -127 30 -3 9
-10 19 -15 23 -13 8 5 53 38 93 l24 30 2 -30 c1 -16 2 -34 4 -40 1 -5 3 -19 4
-30 l2 -20 9 20 c5 11 9 36 10 55 1 33 2 34 15 16 8 -11 17 -17 20 -14 9 9
-14 58 -27 59 -7 1 3 5 22 8 l35 7 -28 14 c-23 11 -33 11 -48 2 -33 -21 -23
13 14 43 73 61 128 117 125 127 -2 6 -33 -16 -68 -48 -108 -97 -108 -97 -122
-88 -7 5 -20 9 -28 11 -25 3 -60 26 -54 35 3 4 9 6 14 3 5 -3 29 -7 54 -9 41
-4 44 -3 34 14 -12 19 -48 30 -102 30 -27 1 -29 2 -13 11 10 6 43 9 72 7 59
-5 62 6 9 28 -46 19 -64 17 -102 -13z m30 -127 c0 -6 1 -18 2 -26 1 -8 6 -15
13 -15 22 0 24 -13 7 -49 l-18 -36 -17 68 c-10 37 -18 70 -18 74 -1 12 29 -3
31 -16z m89 -23 c12 -16 12 -17 -2 -6 -9 7 -18 10 -21 7 -3 -3 -9 -1 -13 5
-11 18 22 12 36 -6z m-29 -98 c-29 -48 -37 -53 -45 -30 -6 14 46 75 63 75 5 0
-3 -20 -18 -45z"/>
<path d="M692 1189 c5 -14 415 -158 478 -167 l45 -7 3 -74 c2 -53 -1 -77 -10
-82 -8 -6 -1 -9 20 -9 28 0 31 3 24 18 -4 9 -8 50 -7 90 l1 72 -32 0 c-18 0
-112 29 -211 64 -329 118 -318 115 -311 95z"/>
<path d="M655 1130 c-3 -5 1 -10 9 -10 9 0 16 5 16 10 0 6 -4 10 -9 10 -6 0
-13 -4 -16 -10z"/>
<path d="M692 1110 c0 -16 3 -30 7 -30 4 0 8 14 9 30 0 17 -3 30 -7 30 -4 0
-8 -13 -9 -30z"/>
<path d="M655 1090 c3 -5 10 -10 16 -10 5 0 9 5 9 10 0 6 -7 10 -16 10 -8 0
-12 -4 -9 -10z"/>
<path d="M1728 1018 c7 -7 12 -40 12 -78 0 -38 -5 -71 -12 -78 -9 -9 -5 -12
19 -12 27 0 30 3 25 25 -2 14 0 25 5 25 5 0 15 -11 21 -25 7 -15 20 -25 32
-25 l21 0 -20 29 c-27 38 -27 59 2 71 25 10 24 11 -15 15 -20 3 -25 0 -21 -10
3 -8 -2 -22 -11 -30 -18 -19 -19 -17 -18 58 1 44 -1 47 -26 47 -20 0 -23 -3
-14 -12z"/>
<path d="M658 1014 c8 -4 12 -30 12 -79 0 -49 -4 -75 -12 -78 -7 -3 7 -6 32
-6 35 0 41 2 28 10 -25 14 -24 59 1 59 13 0 23 -11 31 -35 9 -27 17 -35 36
-35 l24 0 -23 38 c-21 34 -22 39 -9 66 14 27 13 31 -5 46 -13 10 -41 17 -74
18 -30 0 -48 -1 -41 -4z m83 -14 c11 0 12 -60 2 -61 -5 0 -16 -2 -25 -4 -15
-3 -18 4 -18 37 0 32 3 39 16 34 9 -3 20 -6 25 -6z"/>
<path d="M1358 945 c3 -58 1 -80 -9 -86 -9 -6 2 -9 31 -9 35 1 41 3 28 11 -19
11 -25 48 -8 50 30 4 70 19 71 27 0 4 2 15 4 24 6 31 -19 50 -71 55 l-49 5 3
-77z m70 53 c18 -18 14 -56 -7 -67 -25 -14 -31 -5 -31 41 0 39 15 49 38 26z"/>
<path d="M840 955 c-18 -22 -4 -32 17 -13 20 17 43 13 43 -7 0 -7 -14 -15 -30
-19 -17 -3 -33 -13 -37 -22 -8 -21 11 -50 29 -45 7 2 28 3 46 2 21 0 30 3 26
11 -4 6 -7 28 -8 50 -1 22 -9 43 -17 49 -22 14 -55 11 -69 -6z m57 -65 c1 -11
-3 -22 -9 -26 -14 -9 -32 12 -25 30 9 23 32 20 34 -4z"/>
<path d="M972 913 c30 -60 33 -87 8 -89 -8 -1 -17 -3 -20 -4 -3 -1 -14 -3 -25
-5 -89 -18 -124 -27 -225 -56 -91 -26 -134 -33 -207 -33 -87 -1 -93 0 -137 31
-25 18 -46 30 -46 27 0 -18 47 -86 69 -101 68 -45 220 -18 436 77 66 29 115
42 135 37 26 -7 42 15 78 100 27 66 28 71 10 70 -10 -1 -16 -7 -14 -14 3 -7 0
-26 -7 -43 l-13 -30 -13 35 c-7 19 -9 39 -6 45 4 6 -6 10 -23 10 l-29 0 29
-57z"/>
<path d="M1098 959 c-10 -5 -18 -14 -18 -19 0 -16 22 -11 35 7 7 9 17 13 23 9
22 -13 12 -33 -20 -42 -26 -8 -33 -15 -33 -34 0 -23 4 -25 50 -28 l50 -3 -3
48 c-2 26 -9 54 -14 61 -12 14 -46 15 -70 1z m50 -71 c-2 -12 -9 -23 -15 -26
-19 -6 -29 28 -12 39 23 14 31 10 27 -13z"/>
<path d="M1513 963 c-15 -5 -18 -33 -4 -33 5 0 11 5 13 12 7 20 38 18 38 -3 0
-10 -6 -19 -14 -19 -25 0 -58 -34 -51 -53 6 -13 19 -17 64 -17 31 0 51 4 46 8
-6 4 -11 27 -13 52 -1 24 -8 48 -15 52 -13 8 -45 9 -64 1z m47 -72 c0 -11 -5
-23 -11 -27 -16 -9 -30 18 -17 33 15 19 28 16 28 -6z"/>
<path d="M1628 957 c11 -14 11 -76 -1 -94 -6 -10 2 -13 28 -13 32 0 35 2 22
15 -10 10 -14 26 -10 47 6 41 9 44 28 28 10 -8 15 -9 15 -1 0 6 1 14 2 19 1 4
-20 8 -46 9 -36 2 -45 -1 -38 -10z"/>
<path d="M955 775 c-52 -11 -207 -67 -270 -96 -11 -5 -47 -19 -80 -30 l-60
-19 50 4 c28 2 117 22 199 45 230 63 315 64 386 4 17 -14 33 -23 35 -21 3 2
-8 25 -24 50 -46 73 -111 91 -236 63z"/>
</g>
</svg>
