<svg width="14" height="14" viewBox="0 0 14 14" fill="none" xmlns="http://www.w3.org/2000/svg">
<path d="M0.714355 4.57471C0.756012 4.28053 0.78775 3.98468 0.840698 3.69264C1.14084 2.0385 2.31195 0.913054 3.98645 0.855378C6.00259 0.786106 8.02484 0.782444 10.0407 0.855073C11.8632 0.920683 13.1831 2.27012 13.24 4.09316C13.3006 6.02897 13.3006 7.96951 13.24 9.90531C13.1831 11.7284 11.8636 13.0776 10.0408 13.1434C8.02499 13.2162 6.00229 13.218 3.9866 13.1423C2.16379 13.0738 0.903717 11.7213 0.781799 9.89555C0.771271 9.73762 0.737396 9.58107 0.714355 9.42392C0.714355 7.80746 0.714355 6.19101 0.714355 4.57471ZM7.00159 12.063C7.92413 12.063 8.8476 12.0906 9.76892 12.0566C11.2135 12.003 12.102 11.1409 12.1357 9.6978C12.1775 7.89962 12.1775 6.09901 12.1357 4.30068C12.102 2.85786 11.2129 1.97563 9.76892 1.94496C7.93619 1.90621 6.10147 1.90651 4.26874 1.94496C2.83578 1.97502 1.94467 2.8394 1.90576 4.26634C1.85632 6.08726 1.85632 7.91137 1.90576 9.73228C1.94467 11.1591 2.83578 12.0035 4.26889 12.0566C5.17862 12.0904 6.09064 12.063 7.00159 12.063Z" fill="white"/>
<path d="M7.00031 3.79614C5.2312 3.79614 3.79688 5.23026 3.79688 6.99929C3.79688 8.76848 5.2312 10.2026 7.00031 10.2026C8.76956 10.2026 10.2037 8.76848 10.2037 6.99929C10.2037 5.23026 8.76956 3.79614 7.00031 3.79614ZM7.00031 9.09973C5.84018 9.09973 4.89978 8.15937 4.89978 6.99929C4.89978 5.83921 5.84018 4.89885 7.00031 4.89885C8.16043 4.89885 9.10083 5.83921 9.10083 6.99929C9.10083 8.15937 8.16043 9.09973 7.00031 9.09973Z" fill="white"/>
<path d="M11.1526 3.64935C11.1526 4.07017 10.8114 4.41135 10.3906 4.41135C9.96976 4.41135 9.62842 4.07017 9.62842 3.64935C9.62842 3.22838 9.96976 2.88721 10.3906 2.88721C10.8114 2.88721 11.1526 3.22838 11.1526 3.64935Z" fill="white"/>
</svg>
